<?xml version="1.0" encoding="utf-8"?>
<!-- Generator: Adobe Illustrator 26.0.1, SVG Export Plug-In . SVG Version: 6.00 Build 0)  -->
<svg version="1.1" id="Layer_1" xmlns="http://www.w3.org/2000/svg" xmlns:xlink="http://www.w3.org/1999/xlink" x="0px" y="0px"
	 viewBox="0 0 72 20" style="enable-background:new 0 0 72 20;" xml:space="preserve">
<style type="text/css">
	.st0{fill:#30AF5B;}
	.st1{font-family:'MyriadPro-Regular';}
	.st2{font-size:21.1376px;}
</style>
<path class="st0" d="M28.5,1.5V19h-3.6V1.5H28.5z M31.4,19V5.9h3.6V19H31.4z M33.3,4.2c-0.5,0-1-0.2-1.4-0.5
	c-0.4-0.4-0.6-0.8-0.6-1.3c0-0.5,0.2-0.9,0.6-1.3c0.4-0.4,0.8-0.5,1.4-0.5c0.5,0,1,0.2,1.4,0.5c0.4,0.4,0.6,0.8,0.6,1.3
	c0,0.5-0.2,0.9-0.6,1.3C34.3,4,33.8,4.2,33.3,4.2z M41.6,11.4V19H38V5.9h3.5v2.3h0.2c0.3-0.8,0.8-1.4,1.5-1.8
	c0.7-0.4,1.5-0.7,2.5-0.7c0.9,0,1.7,0.2,2.4,0.6c0.7,0.4,1.2,1,1.6,1.7c0.4,0.7,0.6,1.6,0.6,2.6V19h-3.6v-7.7c0-0.8-0.2-1.4-0.6-1.9
	c-0.4-0.5-1-0.7-1.7-0.7c-0.5,0-0.9,0.1-1.3,0.3c-0.4,0.2-0.7,0.5-0.9,0.9C41.7,10.4,41.6,10.9,41.6,11.4z M56.2,15.2l0-4.4h0.5
	l4.2-5h4.2l-5.6,6.6h-0.9L56.2,15.2z M52.9,19V1.5h3.6V19H52.9z M61.1,19l-3.9-5.7l2.4-2.6l5.7,8.3H61.1z M69,19.2
	c-0.6,0-1-0.2-1.4-0.6c-0.4-0.4-0.6-0.9-0.6-1.4c0-0.6,0.2-1,0.6-1.4c0.4-0.4,0.9-0.6,1.4-0.6c0.5,0,1,0.2,1.4,0.6
	c0.4,0.4,0.6,0.9,0.6,1.4c0,0.4-0.1,0.7-0.3,1c-0.2,0.3-0.4,0.6-0.7,0.7C69.7,19.1,69.4,19.2,69,19.2z"/>
<text transform="matrix(1.058 0 0 1 -1.0828 18.2412)" class="st1 st2">Ex</text>
</svg>
